<svg xmlns="http://www.w3.org/2000/svg" height="512pt" version="1.1" viewBox="0 -48 512.00001 512" width="512pt">
<g id="surface1">
<path d="M 356.351562 0 C 328.121094 -0.0898438 305.164062 22.722656 305.078125 50.953125 C 305.035156 64.585938 310.4375 77.667969 320.085938 87.296875 L 392.535156 159.746094 L 392.535156 14.933594 C 382.945312 5.332031 369.921875 -0.0429688 356.351562 0 Z M 356.351562 0 " style=" stroke:none;fill-rule:nonzero;fill:rgb(67.058824%,13.72549%,0%);fill-opacity:1;" />
<path d="M 464.980469 14.933594 C 444.933594 -4.976562 412.578125 -4.976562 392.535156 14.933594 L 392.535156 159.746094 L 464.980469 87.296875 C 484.921875 67.3125 484.90625 34.9375 464.980469 14.933594 Z M 464.980469 14.933594 " style=" stroke:none;fill-rule:nonzero;fill:rgb(80.392157%,16.470588%,0%);fill-opacity:1;" />
<path d="M 256 415.746094 C 255.5 415.742188 255 415.699219 254.507812 415.617188 C 250.433594 414.890625 247.464844 411.347656 247.464844 407.210938 L 247.464844 72.414062 L 161.007812 223.746094 C 159.480469 226.390625 156.65625 228.015625 153.601562 228.011719 L 0 228.011719 L 0 210.945312 L 148.652344 210.945312 L 248.59375 36.011719 C 250.933594 31.921875 256.144531 30.5 260.238281 32.839844 C 262.902344 34.367188 264.542969 37.207031 264.535156 40.277344 L 264.535156 358.777344 L 316.253906 216.558594 C 317.480469 213.191406 320.679688 210.945312 324.265625 210.945312 L 512 210.945312 L 512 228.011719 L 330.238281 228.011719 L 264.011719 410.128906 C 262.785156 413.5 259.585938 415.742188 256 415.746094 Z M 256 415.746094 " style=" stroke:none;fill-rule:nonzero;fill:rgb(100%,38.431373%,26.27451%);fill-opacity:1;" />
</g>
</svg>